HIERARCHY
ROOT Hips
{
	OFFSET	0	0	0
	CHANNELS 6  Xposition Yposition Zposition Xrotation Yrotation Zrotation
	JOINT Spine
	{
		OFFSET	0	7.07069	1.42098
		CHANNELS 3  Xrotation Yrotation Zrotation
		JOINT Spine1
		{
			OFFSET	0	12.118	-2.16393
			CHANNELS 3  Xrotation Yrotation Zrotation
			JOINT Spine2
			{
				OFFSET	0	9.18588	0.984588
				CHANNELS 3  Xrotation Yrotation Zrotation
				JOINT Spine3
				{
					OFFSET	0	10.9928	3.26753
					CHANNELS 3  Xrotation Yrotation Zrotation
					JOINT Spine4
					{
						OFFSET	0	16.2728	-1.66623
						CHANNELS 3  Xrotation Yrotation Zrotation
						JOINT Neck
						{
							OFFSET	0	7.76851	-5.44228
							CHANNELS 3  Xrotation Yrotation Zrotation
							JOINT Head
							{
								OFFSET	0	9.32654	-2.79147
								CHANNELS 3  Xrotation Yrotation Zrotation
								End Site
								{
									OFFSET	0	19.4537	-0.941309
								}
							}
						}
					}
					JOINT LeftShoulder
					{
						OFFSET	-4.67409	19.7783	-9.32654
						CHANNELS 3  Xrotation Yrotation Zrotation
						JOINT LeftArm
						{
							OFFSET	-10.1845	-2.79147	3.58132
							CHANNELS 3  Xrotation Yrotation Zrotation
							JOINT LeftForeArm
							{
								OFFSET	-31.5067	-1.43802	2.24891
								CHANNELS 3  Xrotation Yrotation Zrotation
								JOINT LeftHand
								{
									OFFSET	-25.4342	-1.75765	1.81547
									CHANNELS 3  Xrotation Yrotation Zrotation
									End Site
									{
										OFFSET	-9.28223	-0.641455	0.662512
									}
								}
							}
						}
					}
					JOINT RightShoulder
					{
						OFFSET	4.67409	19.7783	-9.32654
						CHANNELS 3  Xrotation Yrotation Zrotation
						JOINT RightArm
						{
							OFFSET	10.1845	-2.79147	3.58132
							CHANNELS 3  Xrotation Yrotation Zrotation
							JOINT RightForeArm
							{
								OFFSET	31.5067	-1.43802	2.24891
								CHANNELS 3  Xrotation Yrotation Zrotation
								JOINT RightHand
								{
									OFFSET	25.4342	-1.75765	1.81547
									CHANNELS 3  Xrotation Yrotation Zrotation
									End Site
									{
										OFFSET	9.28223	-0.641455	0.662512
									}
								}
							}
						}
					}
				}
			}
		}
	}
	JOINT LeftUpLeg
	{
		OFFSET	-9.61129	-3.53534	-0.71049
		CHANNELS 3  Xrotation Yrotation Zrotation
		JOINT LeftLeg
		{
			OFFSET	-2.18601	-42.8339	-0.669588
			CHANNELS 3  Xrotation Yrotation Zrotation
			JOINT LeftFoot
			{
				OFFSET	-2.13734	-39.398	3.38822
				CHANNELS 3  Xrotation Yrotation Zrotation
				JOINT LeftToeBase
				{
					OFFSET	0	-4.79061	-12.7239
					CHANNELS 3  Xrotation Yrotation Zrotation
					End Site
					{
						OFFSET	0	-1.91625	-7.66498
					}
				}
			}
		}
	}
	JOINT RightUpLeg
	{
		OFFSET	9.61129	-3.53534	-0.71049
		CHANNELS 3  Xrotation Yrotation Zrotation
		JOINT RightLeg
		{
			OFFSET	2.18601	-42.8339	-0.669588
			CHANNELS 3  Xrotation Yrotation Zrotation
			JOINT RightFoot
			{
				OFFSET	2.13734	-39.398	3.38822
				CHANNELS 3  Xrotation Yrotation Zrotation
				JOINT RightToeBase
				{
					OFFSET	0	-4.79061	-12.7239
					CHANNELS 3  Xrotation Yrotation Zrotation
					End Site
					{
						OFFSET	0	-1.91625	-7.66498
					}
				}
			}
		}
	}
}
MOTION
Frames: 17
Frame Time: 0.020408
 0 -10.0139 2.87148 -0 0 -0 -0 0 -0 -0 0 -0 -0 0 -0 -0 0 -0 -0 0 -0 -0 0 -0 -0 0 -0 -0 0 -0 -0 0 -0 -0 0 -0 -0 0 -0 -0 0 -0 -0 0 -0 -0 0 -0 -0 0 -0 -0 0 -0 -0 0 -0 -0 0 -0 -0 0 -0 -0 0 -0 -0 0 -0 -0 0 -0 -0 0 -0
 -166.301 10.2269 19.5722 87.1943 -0.154057 143.141 0.00232731 0.0129242 -10.208 177.798 179.975 162.987 177.887 179.925 162.987 178.751 179.987 169.792 178.75 179.926 176.598 0.34598 -25.0843 -4.98749 179.439 -141.776 175.331 1.5327 23.0847 2.11904 175.042 -102.483 -97.6002 65.8529 -126.832 58.5936 -0 77.5568 74.7605 175.333 178.237 -170.804 6.75631 87.0675 -97.5765 56.2958 156.407 -28.4818 -0 -88.7958 90.4761 35.7675 -43.7159 -52.3885 64.467 163.641 -179.932 157.591 -179.967 178.542 169.889 180 -180 35.1318 -20.0261 -17.3891 88.7611 163.861 -179.895 157.378 -179.977 168.534 139.891 180 -180
 -166.294 10.2947 19.7173 87.2388 -0.0583737 143.065 0.00163738 0.00915357 -10.1418 177.802 179.982 163.097 177.889 179.947 163.097 178.76 179.991 169.858 178.738 179.925 176.62 0.300188 -25.1109 -5.0623 179.424 -141.781 175.306 1.50805 23.1216 2.0833 170.874 -101.764 -101.499 65.8341 -126.552 58.6285 -0 77.6671 75.2131 175.449 178.535 -171.058 4.57582 86.8255 -95.347 56.3804 156.283 -28.7278 -0 -88.8411 90.3521 35.3886 -43.6964 -52.6132 64.6183 163.653 -179.978 157.287 -179.968 178.581 169.871 180 -180 35.0229 -19.8725 -17.4245 88.8148 163.889 -179.756 157.361 -179.976 168.542 139.891 180 -180
 -166.343 10.3773 19.8817 87.2989 0.117656 142.926 0.00104121 0.00586716 -10.0632 177.804 179.989 163.228 177.885 179.966 163.228 178.759 179.994 169.937 178.746 179.927 176.646 0.317592 -25.1151 -5.07567 179.431 -141.797 175.306 1.50584 23.0576 2.08305 166.985 -101.128 -105.26 66.5349 -126.069 59.5911 -0 77.7733 75.6153 175.554 178.786 -171.285 2.89058 86.5997 -93.6039 56.5452 156.043 -29.1446 -0 -88.8826 90.2935 34.6114 -43.6193 -53.2238 64.967 163.63 179.91 157.234 -179.984 178.609 169.855 180 -180 34.8884 -19.7032 -17.4624 88.8359 164.086 -179.739 157.303 -179.971 168.661 139.892 180 -180
 -166.372 10.4679 20.1704 87.3259 0.288049 142.745 180 -179.997 170.028 177.807 -179.995 163.38 177.875 -179.984 163.38 178.754 -179.997 170.028 178.77 179.929 176.677 0.384448 -25.0917 -5.00601 179.454 -141.804 175.332 1.53573 22.9894 2.12752 163.263 -100.644 -108.921 67.8517 -125.588 61.251 -0 77.8609 75.8455 175.649 179.023 -171.49 2.02109 86.4264 -92.684 56.821 155.643 -29.7889 -0 -88.9232 90.2421 33.8577 -43.4978 -53.8665 65.3482 163.63 179.873 157.134 -179.984 178.632 169.841 180 -180 34.7711 -19.5291 -17.4396 88.8108 164.426 -179.863 157.273 -179.972 168.788 139.892 180 -180
 -166.472 10.5454 20.3528 87.3829 0.439211 142.57 179.999 -179.993 170.103 177.813 -179.986 163.505 177.872 -179.957 163.505 178.746 -179.993 170.103 178.802 179.931 176.702 0.479479 -25.0739 -4.91951 179.486 -141.799 175.365 1.50421 22.9694 2.08468 160.267 -100.185 -111.966 69.4851 -125.185 63.2512 -0 77.9401 75.9878 175.699 179.203 -171.603 1.12085 86.2864 -91.7619 57.1481 155.196 -30.4775 -0 -88.9746 90.2222 33.431 -43.2415 -54.3431 65.6448 163.626 179.939 157.121 -179.989 178.65 169.83 180 -180 34.7148 -19.3549 -17.4152 88.8065 165.024 179.893 157.223 -179.988 168.859 139.89 180 -180
 -166.488 10.5962 20.4024 87.4473 0.560624 142.468 179.999 -179.993 170.148 177.82 -179.986 163.58 177.876 -179.958 163.58 178.741 -179.993 170.148 178.826 179.933 176.717 0.548907 -25.0901 -4.90634 179.51 -141.795 175.375 1.49635 23.0911 2.06844 157.51 -99.9724 -114.828 73.0286 -124.605 67.577 -0 78.0034 75.9805 175.725 179.385 -171.667 1.4926 86.1434 -92.0706 57.4976 154.87 -31.1547 -0 -89.0311 90.2938 33.1377 -43.0403 -54.6801 65.8511 163.617 -179.998 157.093 -179.994 178.666 169.82 180 -180 34.6788 -19.2765 -17.4233 88.7559 165.554 179.883 157.187 179.985 168.806 139.891 180 -180
 -166.438 10.684 20.6658 87.5281 0.773299 142.142 179.999 -179.995 170.246 177.821 -179.99 163.743 177.87 -179.97 163.743 178.713 -179.995 170.246 178.894 179.937 176.749 0.760881 -25.0983 -4.80837 179.583 -141.797 175.423 1.45423 23.0452 2.0121 155.236 -99.4567 -117.116 76.0825 -124.163 71.2039 -0 78.0552 76.0509 176.102 179.246 -172.399 1.7588 86.074 -92.0729 58.0116 154.571 -31.9911 -0 -89.0701 90.5349 32.7991 -42.7384 -55.1356 65.9777 163.629 -179.903 157.132 -179.99 178.69 169.812 180 -180 34.7283 -19.2418 -17.4143 88.2312 166.027 -179.988 157.342 -179.996 168.642 139.891 180 -180
 -166.546 10.8078 20.6929 87.5626 1.01319 141.953 0.00190732 0.0111583 -9.69996 177.856 179.978 163.833 177.906 179.935 163.833 178.681 179.989 170.3 179.022 179.945 176.767 1.14195 -25.1487 -4.6626 179.715 -141.766 175.498 1.45977 22.939 2.02431 154.048 -98.9602 -118.198 77.6936 -123.887 73.1526 -0 78.0886 76.2024 176.219 179.556 -172.65 1.88554 85.939 -92.6422 58.5495 154.191 -32.7608 -0 -89.1172 90.7551 32.4189 -42.331 -55.4235 66.0787 163.626 -179.849 157.281 -179.999 178.642 169.806 180 -180 34.7225 -19.1426 -17.3881 87.6674 166.637 -179.843 157.415 -179.987 168.573 139.891 180 -180
 -166.593 10.9104 20.8196 87.5321 1.23351 141.853 0.00272298 0.0160242 -9.64413 177.866 179.969 163.926 177.909 179.906 163.926 178.647 179.984 170.356 179.116 179.95 176.786 1.42442 -25.1707 -4.56627 179.814 -141.783 175.554 1.48428 22.8737 2.06117 153.193 -98.5545 -118.982 78.2695 -123.853 73.8839 -0 78.109 76.2099 176.335 179.778 -172.892 2.94024 85.8512 -93.9064 59.0227 153.953 -33.4805 -0 -89.1772 90.9882 32.0965 -42.0204 -55.7306 66.1532 163.729 -179.853 157.395 -179.99 178.602 169.8 180 -180 34.6877 -19.0552 -17.5433 87.1398 167.209 -179.812 157.442 -179.986 168.535 139.891 180 -180
 -166.829 10.9949 21.0715 87.4655 1.37328 141.356 0.00187027 0.0111762 -9.50009 177.865 179.978 164.167 177.892 179.935 164.167 178.619 179.989 170.5 179.185 179.955 176.834 1.64333 -25.1559 -4.42446 179.889 -141.78 175.615 1.50832 22.9874 2.08959 151.384 -98.1522 -120.864 79.6055 -123.86 75.5137 -0 78.1457 76.0707 176.649 179.672 -173.498 0.382893 85.8295 -91.4889 59.4998 153.617 -34.335 -0 -89.241 91.1868 32.2768 -41.5861 -55.6771 66.2406 163.796 -179.889 157.586 -179.988 178.582 169.795 180 -180 34.7344 -18.9794 -17.6438 86.6084 167.701 -179.852 157.42 -179.979 168.527 139.891 180 -180
 -166.966 11.0791 21.2643 87.3582 1.45226 141.004 0.00274401 0.0165763 -9.39941 177.882 179.968 164.334 177.905 179.903 164.334 178.6 179.983 170.601 179.257 179.959 176.867 1.85423 -25.1867 -4.35821 179.962 -141.773 175.653 1.51152 22.9618 2.09516 149.684 -97.706 -122.558 81.1177 -123.917 77.2892 -0 78.1855 75.8262 177.161 179.793 -174.502 0.0273102 85.989 -91.9902 59.8947 153.321 -34.9287 -0 -89.3023 91.3975 32.4868 -41.2335 -55.646 66.3876 163.859 -179.919 157.703 179.992 178.592 169.791 180 -180 34.7286 -18.9529 -17.773 86.1656 167.66 -179.988 157.425 -179.991 168.514 139.89 180 -180
 -167.141 11.154 21.3988 87.1462 1.47955 141.126 0.0022057 0.01334 -9.3886 177.884 179.974 164.352 177.898 179.922 164.352 178.585 179.987 170.611 179.296 179.962 176.871 1.97342 -25.2217 -4.33632 0.00275192 -38.2457 -4.33125 1.49643 22.9042 2.07673 149.096 -97.3806 -123.208 82.7919 -124.009 79.2765 -0 78.2128 75.5624 177.789 179.951 -175.729 3.0351 86.1864 -95.6865 60.2393 152.978 -35.6322 -0 -89.3621 91.5298 32.7199 -40.9512 -55.5879 66.5016 163.919 -179.914 157.833 179.983 178.606 169.788 180 -180 34.6551 -18.9299 -17.9626 85.742 167.613 -179.925 157.468 -179.967 168.539 139.891 180 -180
 -167.275 11.1893 21.432 87.0133 1.48922 141.172 0.00149644 0.00908235 -9.3562 177.884 179.982 164.406 177.887 179.947 164.406 178.566 179.991 170.644 179.344 179.964 176.881 2.12471 -25.2251 -4.26024 0.0548094 -38.2493 -4.29565 1.49558 22.8915 2.0761 148.225 -97.2795 -124.178 84.5173 -124.277 81.3343 -0 78.2505 75.1495 178.403 -179.847 -176.922 5.4969 86.332 -98.7171 60.4998 152.698 -36.2587 -0 -89.414 91.6104 32.9151 -40.7304 -55.4946 66.6129 163.966 -179.914 157.959 179.976 178.618 169.785 180 -180 34.651 -18.9083 -18.0822 85.4545 167.564 -179.875 157.424 -179.968 168.527 139.89 180 -180
 -167.311 11.2051 21.5693 86.9249 1.51051 140.98 0.00103592 0.00633977 -9.28013 177.884 179.988 164.533 177.88 179.963 164.533 178.554 179.994 170.72 179.374 179.966 176.907 2.21409 -25.2182 -4.21626 0.0862425 -38.2347 -4.27326 1.48739 22.8621 2.066 147.422 -97.221 -125.136 86.3199 -124.606 83.5788 -0 78.2736 74.6759 178.86 -179.892 -177.803 0.799407 86.5015 -94.4042 60.653 152.548 -36.5898 -0 -89.4607 91.6963 33.0655 -40.5461 -55.4313 66.7153 164.003 -179.908 158.094 179.971 178.627 169.783 180 -180 34.6274 -19.0528 -18.1745 85.2482 167.314 -179.946 157.325 -179.975 168.521 139.891 180 -180
 -167.361 11.2275 21.7759 86.8251 1.51763 140.8 0.000957829 0.00590886 -9.20758 177.891 179.988 164.654 177.88 179.965 164.654 178.543 179.994 170.792 179.412 179.968 176.931 2.32997 -25.2344 -4.1692 0.125828 -38.2496 -4.25036 1.48058 22.7811 2.06002 147.169 -97.0153 -125.421 88.7626 -125.014 86.5274 -0 78.3267 74.1076 179.18 -179.896 -178.42 175.539 93.3621 90.4422 60.7333 152.463 -36.7165 -0 -89.5101 91.7901 33.1899 -40.3951 -55.3901 66.8163 164.037 -179.889 158.22 179.971 178.635 169.782 180 -180 34.5788 -19.1773 -18.2899 85.0532 166.682 -179.997 157.277 -179.968 168.522 139.89 180 -180
 -167.469 11.2598 21.7418 86.7627 1.55577 140.654 0.00118701 0.00737276 -9.14608 177.89 179.986 164.757 177.877 179.957 164.757 178.53 179.993 170.854 179.44 179.97 176.951 2.42031 -25.2132 -4.10118 0.157138 -38.236 -4.22117 1.47214 22.6918 2.0521 146.402 -96.7841 -126.15 90.2186 -125.453 88.2544 -0 78.3087 73.4903 179.466 -179.901 -178.971 172.726 93.246 92.9352 60.8912 152.286 -37.0952 -0 -89.5513 91.863 33.2425 -39.9614 -54.9998 67.2753 164.057 -179.975 158.025 179.961 178.76 169.78 180 -180 34.4801 -19.3095 -18.3827 84.8945 165.602 179.973 157.236 -179.977 168.515 139.889 180 -180
